name Walk7.mot
datacolumns 19
datarows 17
range 2.94500000 3.02500000
endheader

                time	   L_ground_force_vx	   L_ground_force_vy	   L_ground_force_vz	   L_ground_force_px	   L_ground_force_py	   L_ground_force_pz	   R_ground_force_vx	   R_ground_force_vy	   R_ground_force_vz	   R_ground_force_px	   R_ground_force_py	   R_ground_force_pz	   L_ground_torque_x	   L_ground_torque_y	   L_ground_torque_z	   R_ground_torque_x	   R_ground_torque_y	   R_ground_torque_z	
          2.94500000	         -0.15794136	        732.13564345	         53.31361420	         -0.28750002	          0.00000000	         -0.06292185	          0.00016057	          0.16158172	          0.02495503	          0.00009080	          0.00000000	          0.00008838	          0.00000000	          2.64045227	          0.00000000	          0.00000000	          0.00207652	          0.00000000	
          2.95000000	          2.83933437	        736.89431591	         54.18763452	         -0.28696334	          0.00000000	         -0.06304503	         -0.00075170	          0.22720706	          0.03124649	          0.00011553	          0.00000000	          0.00011184	          0.00000000	          2.57493007	          0.00000000	          0.00000000	          0.00323271	          0.00000000	
          2.95500000	          5.98028027	        741.83396851	         55.07789595	         -0.28646855	          0.00000000	         -0.06316617	         -0.00208157	          0.30152088	          0.03720369	          0.00013985	          0.00000000	          0.00013463	          0.00000000	          2.50039896	          0.00000000	          0.00000000	          0.00463696	          0.00000000	
          2.96000000	          9.25957781	        746.93175449	         55.97767632	         -0.28601049	          0.00000000	         -0.06328081	         -0.00389863	          0.38021834	          0.04190496	          0.00016052	          0.00000000	          0.00015357	          0.00000000	          2.41643899	          0.00000000	          0.00000000	          0.00625486	          0.00000000	
          2.96500000	         12.67265887	        752.16369896	         56.88088139	         -0.28558286	          0.00000000	         -0.06338468	         -0.00625131	          0.45604597	          0.04406798	          0.00017295	          0.00000000	          0.00016417	          0.00000000	          2.32359458	          0.00000000	          0.00000000	          0.00800637	          0.00000000	
          2.97000000	         16.21463968	        757.50238786	         57.78135710	         -0.28517957	          0.00000000	         -0.06347542	         -0.00914906	          0.51804677	          0.04200613	          0.00017102	          0.00000000	          0.00016044	          0.00000000	          2.22315944	          0.00000000	          0.00000000	          0.00975024	          0.00000000	
          2.97500000	         19.87858945	        762.92154867	         58.67277960	         -0.28479616	          0.00000000	         -0.06355249	         -0.01253942	          0.55083984	          0.03361038	          0.00014690	          0.00000000	          0.00013484	          0.00000000	          2.11682550	          0.00000000	          0.00000000	          0.01126712	          0.00000000	
          2.98000000	         23.65291081	        768.39545952	         59.54834167	         -0.28442968	          0.00000000	         -0.06361539	         -0.01627982	          0.53404266	          0.01637311	          0.00009118	          0.00000000	          0.00007830	          0.00000000	          2.00603507	          0.00000000	          0.00000000	          0.01224295	          0.00000000	
          2.98500000	         27.52204815	        773.89160860	         60.39981044	         -0.28407816	          0.00000000	         -0.06366504	         -0.02010476	          0.44198703	         -0.01252559	         -0.00000695	          0.00000000	         -0.00001954	          0.00000000	          1.89183673	          0.00000000	          0.00000000	          0.01225474	          0.00000000	
          2.99000000	         31.47029080	        779.36828466	         61.21723031	         -0.28374038	          0.00000000	         -0.06370338	         -0.02358981	          0.24392794	         -0.05604489	         -0.00015912	          0.00000000	         -0.00016969	          0.00000000	          1.77486580	          0.00000000	          0.00000000	          0.01076178	          0.00000000	
          2.99500000	         35.48326013	        784.77681987	         61.98930919	         -0.28341573	          0.00000000	         -0.06372986	         -0.02611505	         -0.09500456	         -0.11699609	         -0.00037678	          0.00000000	         -0.00038290	          0.00000000	          1.65536648	          0.00000000	          0.00000000	          0.00710645	          0.00000000	
          3.00000000	         39.54784637	        790.06462319	         62.70428006	         -0.28310358	          0.00000000	         -0.06374167	         -0.02683213	         -0.61181229	         -0.19761325	         -0.00066973	          0.00000000	         -0.00066816	          0.00000000	          1.53346750	          0.00000000	          0.00000000	          0.00052999	          0.00000000	
          3.00500000	         43.65270245	        795.17712905	         63.35094283	         -0.28280321	          0.00000000	         -0.06373650	         -0.02464118	         -1.34225814	         -0.29895476	         -0.00104396	          0.00000000	         -0.00103059	          0.00000000	          1.40960902	          0.00000000	          0.00000000	         -0.00979058	          0.00000000	
          3.01000000	         47.78779909	        800.05818516	         63.92000801	         -0.28251448	          0.00000000	         -0.06371433	         -0.01818570	         -2.31576247	         -0.42011513	         -0.00149878	          0.00000000	         -0.00146865	          0.00000000	          1.28479677	          0.00000000	          0.00000000	         -0.02467682	          0.00000000	
          3.01500000	         51.94462908	        804.65175698	         64.40453693	         -0.28223784	          0.00000000	         -0.06367635	         -0.00587635	         -3.54822681	         -0.55723815	         -0.00202316	          0.00000000	         -0.00197063	          0.00000000	          1.16011688	          0.00000000	          0.00000000	         -0.04484677	          0.00000000	
          3.02000000	         56.11577843	        808.90722315	         64.80083139	         -0.28197408	          0.00000000	         -0.06362381	          0.01404331	         -5.03251071	         -0.70234191	         -0.00259137	          0.00000000	         -0.00251036	          0.00000000	          1.03621231	          0.00000000	          0.00000000	         -0.07076851	          0.00000000	
          3.02500000	         60.29445798	        812.77602671	         65.10894270	         -0.28172374	          0.00000000	         -0.06355803	          0.04337369	         -6.72642302	         -0.84199529	         -0.00315783	          0.00000000	         -0.00304242	          0.00000000	          0.91302945	          0.00000000	          0.00000000	         -0.10246261	          0.00000000	
